<svg id="Layer_1" data-name="Layer 1" xmlns="http://www.w3.org/2000/svg" viewBox="0 0 1920 1080"><defs><style>.cls-1{fill:#9e81bb;}.cls-2{fill:#9073b3;}</style></defs><path class="cls-1" d="M180,528.11c123.66,76.46,283.38,61.45,280.72,99.48S292,756.93,284.55,936.39c-7.23,180.45,144.11,449.05,123.53,499.53S194,1319,79.17,1204.11-73.09,1026.15-68.15,971s51.48-101.26-52.2-221.83S-477.72,434.5-503.06,315.61c-25.11-117.89,177.36-159.39,323.87-96.52C-33.67,282.19,55.12,450.89,180,528.11Z"/><path class="cls-2" d="M98.53,596.84C53.84,506.06-57.22,440.77-64.74,382.24c-7.83-58,88.5-110.3,168.56-176.32,79.56-66.31,142.64-147.16,214.52-159s151.77,45.51,226.13,99.63c74.56,54.92,142,107,203.8,183.62,62.13,76.07,118.37,177.11,69.44,228.13-48.42,51.31-201.5,52.9-292.05,85S407.09,738,346.29,789.66c-61.3,51.37-155.4,91.8-191,53.5S142.41,687.85,98.53,596.84Z"/><path class="cls-1" d="M158,1198.92c39-140.07-19.93-289.29,17.34-297.32s171.21,126,345.65,83.16C696.32,941.43,912.13,721.26,966.34,727s-52.67,238.17-131,380.46-128.5,195.82-182.88,206.44S540.86,1292.63,454,1425.8s-202.63,430.87-309.75,488.32C38,1971.09-58.28,1788.19-38.71,1630-18.64,1472.63,118.63,1340.35,158,1198.92Z"/><path class="cls-2" d="M-86.84,1605.18C-187.23,1594.56-303,1652.62-356,1628.06c-52.71-24-43.14-131.78-54-233.19-11.4-101.14-44-196.24-14.22-262.32s121.74-102.36,207.92-135.75c87-33.13,167.66-61.79,265.66-72.92,97.74-11.65,213.06-5.25,228.61,62.35,16.07,67.34-67.11,195.59-90.32,287.87s13.55,148.58,23.08,226.41c9,78.09-9.22,177.7-60.84,187.2S13.28,1616.59-86.84,1605.18Z"/></svg>